<svg xmlns="http://www.w3.org/2000/svg" viewBox="0 0 64 64"><defs><style>.cls-1{fill:#231f20;}</style></defs><title>Droplet</title><g id="Droplet"><path class="cls-1" d="M26,56a1,1,0,0,0,0,2A1,1,0,0,0,26,56Z"/><path class="cls-1" d="M32,1S11,25.11,11,42.33A20.83,20.83,0,0,0,32,63,20.83,20.83,0,0,0,53,42.33C53,25.11,32,1,32,1Zm7,19a2,2,0,1,1-2,2A2,2,0,0,1,39,20ZM25,18a4,4,0,1,1-4,4A4,4,0,0,1,25,18Zm1,42a3,3,0,1,1,3-3A3,3,0,0,1,26,60ZM44,41H42a9.92,9.92,0,0,1-2.21,5.33l.94.94h0a2,2,0,1,1-1.42,1.42h0l-1-.94A9.94,9.94,0,0,1,33,50V52a1,1,0,0,1-2,0V50a9.94,9.94,0,0,1-5.32-2.21l-.95.94h0a2,2,0,1,1-1.42-1.42h0l.94-.94A9.92,9.92,0,0,1,22.05,41H20a1,1,0,0,1,0-2h2.06a9.92,9.92,0,0,1,2.21-5.33c-1.27-1.27-.68-.86-1.45-.86a2,2,0,1,1,1.92-1.5h0l.94.94A9.94,9.94,0,0,1,31,30.05V28a1,1,0,0,1,2,0v2.06a9.94,9.94,0,0,1,5.33,2.21l.94-.94h0a2,2,0,1,1,1.92,1.5c-.74,0-.19-.4-1.45.86A9.88,9.88,0,0,1,42,39H44A1,1,0,0,1,44,41Zm3,7a2,2,0,1,1,2-2A2,2,0,0,1,47,48Z"/><circle class="cls-1" cx="25" cy="22" r="2"/><path class="cls-1" d="M37.66,35.76a1,1,0,0,1-1.42-1.42l.66-.66a8,8,0,0,0-9.8,0l.66.66a1,1,0,0,1-.71,1.71c-.46,0-.6-.18-1.37-.95a8,8,0,0,0,0,9.8l.66-.66a1,1,0,0,1,1.42,1.42l-.66.66a8,8,0,0,0,9.8,0l-.66-.66a1,1,0,0,1,1.42-1.42l.66.66a8,8,0,0,0,0-9.8Zm-7.78,5a2,2,0,0,1-2.83-2.83,2,2,0,0,1,2.83,0A2,2,0,0,1,29.88,40.71ZM32.71,45a1,1,0,0,1-1.42-1.41A1,1,0,0,1,32.71,45Zm3.18-6a1.5,1.5,0,0,1-2.12-2.12A1.5,1.5,0,0,1,35.89,38.94Z"/></g></svg>